#VRML V2.0 utf8
Shape { appearance Appearance { material Material { diffuseColor 0.02 0.02 0.02 specularColor 0.2 0.2 0.2 shininess 0.3 transparency 0 } }
 geometry IndexedFaceSet { creaseAngle 0.5 coord Coordinate { point [
-3.3465 2.1457 0.0000,
3.0315 2.1457 0.0000,
-3.3465 -2.1457 0.0000,
3.0315 -2.1457 0.0000,
-3.3465 2.1457 1.1811,
3.0315 2.1457 1.1811,
-3.3465 -2.1457 1.1811,
3.0315 -2.1457 1.1811
] }
 coordIndex [
0, 2, 3, 1, -1,
4, 5, 7, 6, -1,
0, 1, 5, 4, -1,
2, 6, 7, 3, -1,
0, 4, 6, 2, -1,
1, 3, 7, 5, -1
] } }
Shape { appearance Appearance { material Material { diffuseColor 0.7 0.85 0.95 specularColor 0.2 0.2 0.2 shininess 0.3 transparency 0.35 } }
 geometry IndexedFaceSet { creaseAngle 0.5 coord Coordinate { point [
-4.0945 3.3465 -2.2047,
3.7795 3.3465 -2.2047,
-4.0945 -3.3465 -2.2047,
3.7795 -3.3465 -2.2047,
-4.0945 3.3465 -0.6299,
3.7795 3.3465 -0.6299,
-4.0945 -3.3465 -0.6299,
3.7795 -3.3465 -0.6299
] }
 coordIndex [
0, 2, 3, 1, -1,
4, 5, 7, 6, -1,
0, 1, 5, 4, -1,
2, 6, 7, 3, -1,
0, 4, 6, 2, -1,
1, 3, 7, 5, -1
] } }
